<svg width="38" height="46" viewBox="0 0 38 46" fill="none" xmlns="http://www.w3.org/2000/svg">
<path d="M21.4998 2.96876C21.4826 1.58815 20.3494 0.482941 18.9688 0.500195C17.5882 0.517449 16.4829 1.65064 16.5002 3.03124L21.4998 2.96876ZM17.7545 44.7981C18.7429 45.7621 20.3257 45.7423 21.2897 44.7539L36.9996 28.6464C37.9636 27.658 37.9438 26.0752 36.9554 25.1112C35.9669 24.1471 34.3842 24.1669 33.4201 25.1553L19.4558 39.4731L5.13806 25.5088C4.14963 24.5448 2.56684 24.5645 1.6028 25.553C0.638769 26.5414 0.65855 28.1242 1.64698 29.0882L17.7545 44.7981ZM16.5002 3.03124L17.0002 43.0396L21.9998 42.9771L21.4998 2.96876L16.5002 3.03124Z" fill="#FAF8FF"/>
</svg>
