<svg width="40" height="40" viewBox="0 0 40 40" fill="none" xmlns="http://www.w3.org/2000/svg">
<path d="M6.875 10.2737V29.7275C6.875 31.5637 8.32 33.0087 10.1562 33.0087H29.61C30.5087 33.0087 31.3675 32.5787 31.915 32.0325C32.5012 31.4462 32.8913 30.7037 32.8913 29.7275V10.2737C32.8913 8.43749 31.4462 6.99249 29.61 6.99249H10.1562C9.18 6.99249 8.4375 7.38374 7.85125 7.96874C7.30375 8.51624 6.875 9.37499 6.875 10.2737ZM10.3912 12.8512C10.3912 11.6012 11.4075 10.5075 12.6575 10.5075C13.9462 10.5075 15.0013 11.6012 15.0013 12.8512C15.0013 14.14 13.9462 15.1562 12.6575 15.1562C11.4075 15.1562 10.3912 14.14 10.3912 12.8512ZM16.68 28.9062V16.9925C16.68 16.7187 16.9537 16.485 17.1488 16.485H20.4688C20.9375 16.485 20.9375 17.0325 20.9375 17.3837C21.875 16.4462 23.0863 16.2112 24.3363 16.2112C27.3837 16.2112 29.3363 17.6562 29.3363 20.86V28.9075C29.3363 29.1812 29.1012 29.415 28.8675 29.415H25.43C25.1562 29.415 24.9613 29.1412 24.9613 28.9075V21.6412C24.9613 20.43 24.61 19.7662 23.2425 19.7662C21.5238 19.7662 21.0938 20.8987 21.0938 22.4225V28.9075C21.0938 29.1812 20.82 29.415 20.5463 29.415H17.1475C16.9525 29.415 16.6788 29.1412 16.6788 28.9075L16.68 28.9062ZM10.4688 28.9062V16.9925C10.4688 16.7187 10.7425 16.485 10.9375 16.485H14.3362C14.6487 16.485 14.8438 16.68 14.8438 16.9925V28.9062C14.8438 29.18 14.6087 29.4137 14.3362 29.4137H10.9375C10.7025 29.4137 10.4688 29.14 10.4688 28.9062Z" fill="#FAF8FF"/>
</svg>
