<svg width="100" height="100" viewBox="0 0 100 100" fill="none" xmlns="http://www.w3.org/2000/svg">
<g clip-path="url(#clip0_329_169)">
<path d="M79.4521 1.36987H20.548C9.95619 1.36987 1.36987 9.95619 1.36987 20.548V79.4521C1.36987 90.0438 9.95619 98.6301 20.548 98.6301H79.4521C90.0438 98.6301 98.6301 90.0438 98.6301 79.4521V20.548C98.6301 9.95619 90.0438 1.36987 79.4521 1.36987Z" fill="white" stroke="#134514" stroke-width="1.64384"/>
<path d="M51.3624 84.5592L49.5153 83.9278C49.5153 83.9278 49.7409 74.5108 46.361 73.8351C44.1085 71.2213 46.7223 -37.0111 54.8327 73.4742C54.8327 73.4742 52.0387 74.8707 51.5431 77.2594C51.0021 79.6026 51.3624 84.5592 51.3624 84.5592Z" fill="#A6A385"/>
<path d="M52.354 75.4572C52.354 75.4572 68.5308 64.8229 64.7451 42.6984C61.0957 26.6129 52.4893 21.3409 51.543 19.3131C50.5068 17.8712 49.5151 15.3483 49.5151 15.3483L50.1914 60.0914C50.1914 60.1368 48.7939 73.7892 52.354 75.4572Z" fill="#499D4A"/>
<path d="M48.5694 76.0426C48.5694 76.0426 33.3838 65.6788 34.2852 47.4303C35.1411 29.1813 45.8653 20.2145 47.938 18.5924C49.2901 17.1505 49.335 16.6095 49.4253 15.1676C50.3716 17.1954 50.1914 45.4928 50.3262 48.8268C50.7315 61.6686 49.6055 73.61 48.5694 76.0426Z" fill="#58AA50"/>
</g>
<defs>
<clipPath id="clip0_329_169">
<rect width="100" height="100" fill="white"/>
</clipPath>
</defs>
</svg>
