<svg width="102" height="102" viewBox="0 0 102 102" fill="none" xmlns="http://www.w3.org/2000/svg">
<path d="M81.2817 1H20.7183C9.82819 1 1 9.82819 1 20.7183V81.2817C1 92.1718 9.82819 101 20.7183 101H81.2817C92.1718 101 101 92.1718 101 81.2817V20.7183C101 9.82819 92.1718 1 81.2817 1Z" fill="white" stroke="#013247" stroke-width="1.64384"/>
<path d="M77.9982 69.8001C74.5879 69.7077 71.983 70.0248 69.756 70.964C69.1231 71.2309 68.1139 71.2378 68.0107 72.031C68.3584 72.3956 68.4125 72.9399 68.6889 73.3884C69.2207 74.2489 70.1184 75.4019 70.9194 76.0067C71.7946 76.6673 72.6966 77.374 73.6349 77.946C75.3038 78.9638 77.167 79.5448 78.7741 80.5644C79.721 81.1653 80.6619 81.9222 81.586 82.6004C82.0426 82.9356 82.3498 83.4571 82.9433 83.667C82.9433 83.6351 82.9433 83.6027 82.9433 83.5703C82.6314 83.1732 82.5511 82.6272 82.2647 82.2125C81.8447 81.7926 81.4244 81.3722 81.0041 80.9519C79.7716 79.3159 78.2068 77.879 76.5436 76.6854C75.2174 75.7333 72.2486 74.4472 71.6952 72.9036C71.6628 72.8712 71.6309 72.8388 71.598 72.8064C72.5385 72.7006 73.6397 72.3602 74.5076 72.1278C75.9656 71.7368 77.2685 71.8379 78.7741 71.4491C79.4527 71.2551 80.1314 71.0607 80.8105 70.8672C80.8105 70.7376 80.8105 70.6088 80.8105 70.4792C80.0493 69.6982 79.5067 68.6648 78.6769 67.9581C76.5056 66.1091 74.1356 64.2618 71.6952 62.7215C70.3418 61.8672 68.6691 61.312 67.2348 60.588C66.7523 60.3446 65.9047 60.218 65.5858 59.8122C64.8324 58.8516 64.422 57.634 63.841 56.5152C62.6236 54.1713 61.4282 51.6113 60.35 49.1454C59.6143 47.4638 59.1339 45.8054 58.2167 44.2967C53.8137 37.0577 49.0742 32.6883 41.7323 28.3936C40.1702 27.4803 38.2893 27.1195 36.3016 26.6483C35.2354 26.5838 34.1684 26.5188 33.1018 26.4543C32.4507 26.1821 31.7733 25.3856 31.1625 24.9996C28.7303 23.4631 22.4917 20.121 20.6903 24.5149C19.5528 27.2883 22.3902 29.9947 23.405 31.3999C24.1174 32.3858 25.0293 33.4912 25.5382 34.5999C25.873 35.3285 25.9309 36.0592 26.2173 36.8303C26.9224 38.7296 27.5354 40.796 28.4473 42.5514C28.9083 43.4395 29.4163 44.3752 29.9991 45.1696C30.3564 45.6569 30.9685 45.8716 31.0653 46.6243C30.4665 47.4621 30.4324 48.7628 30.0959 49.8242C28.5804 54.6028 29.1519 60.5425 31.3565 64.0791C32.033 65.1647 33.6262 67.4932 35.8169 66.6003C37.7333 65.8196 37.3052 63.4009 37.8534 61.2668C37.9774 60.7829 37.9013 60.4273 38.1441 60.1033C38.1441 60.1353 38.1441 60.1678 38.1441 60.2003C38.726 61.3639 39.3079 62.5274 39.8898 63.6907C41.1815 65.7713 43.4742 67.9455 45.4169 69.4126C46.4243 70.1734 47.2175 71.4888 48.52 71.9338C48.52 71.9014 48.52 71.8694 48.52 71.8366C48.4871 71.8366 48.4552 71.8366 48.4228 71.8366C48.1705 71.443 47.7756 71.2802 47.4534 70.964C46.6943 70.22 45.8506 69.2951 45.2229 68.4428C43.456 66.0439 41.8943 63.4181 40.4717 60.6851C39.7922 59.3802 39.2017 57.9403 38.6288 56.6122C38.4081 56.1001 38.4107 55.3259 37.9506 55.0606C37.3233 56.0339 36.3992 56.8207 35.9141 57.9698C35.1382 59.8067 35.038 62.0469 34.7507 64.3698C34.5805 64.4308 34.6561 64.3889 34.5563 64.4666C33.2059 64.1409 32.7311 62.7506 32.2295 61.5579C30.9599 58.5415 30.724 53.6844 31.8412 50.2123C32.1302 49.3142 33.4366 46.4846 32.9078 45.6548C32.6555 44.8266 31.8226 44.3478 31.3565 43.715C30.7797 42.9328 30.2039 41.903 29.8047 40.9998C28.7657 38.6478 28.2806 36.0077 27.1868 33.6304C26.664 32.4938 25.7797 31.3438 25.0535 30.3334C24.2496 29.2142 23.3493 28.3898 22.7263 27.036C22.5047 26.5551 22.2036 25.7851 22.5324 25.2907C22.6369 24.957 22.7842 24.8178 23.1143 24.7089C23.6767 24.2752 25.2432 24.8532 25.829 25.0966C27.3842 25.7425 28.6819 26.3576 29.9991 27.2301C30.6316 27.6494 31.2709 28.4603 32.0351 28.6847C32.3259 28.6847 32.6171 28.6847 32.9078 28.6847C34.2729 28.9986 35.8022 28.7822 37.0775 29.1694C39.3317 29.8546 41.3517 30.9203 43.1865 32.0787C48.7757 35.6078 53.3455 40.6315 56.4714 46.6243C56.9743 47.5891 57.192 48.5101 57.6348 49.5335C58.5286 51.5974 59.6544 53.7211 60.5435 55.7394C61.4308 57.753 62.2957 59.7852 63.5498 61.4609C64.2095 62.3418 66.7561 62.8143 67.9135 63.3032C68.7248 63.6462 70.0541 64.0035 70.8226 64.4666C72.2906 65.3522 73.7127 66.4063 75.0895 67.3762C75.7777 67.8609 77.8928 68.924 77.9982 69.8001Z" fill="#00618A"/>
<path fill-rule="evenodd" clip-rule="evenodd" d="M34.6534 32.8544C33.9424 32.8413 33.4395 32.932 32.9077 33.0481C32.9077 33.0805 32.9077 33.113 32.9077 33.1451C32.9401 33.1451 32.9725 33.1451 33.0049 33.1451C33.344 33.842 33.9428 34.2905 34.3623 34.8908C34.6854 35.5696 35.0085 36.2484 35.3321 36.9268C35.3641 36.8947 35.3969 36.8623 35.4289 36.8302C36.0294 36.407 36.3046 35.73 36.3015 34.6968C36.0609 34.4436 36.0255 34.126 35.8168 33.8239C35.5395 33.4214 35.0029 33.1928 34.6534 32.8544Z" fill="#00618A"/>
</svg>
