<svg width="50" height="50" viewBox="0 0 100 100" fill="none" xmlns="http://www.w3.org/2000/svg">
<path d="M49.9999 99.8145C48.6244 99.8145 47.3406 99.4477 46.1485 98.8058L33.9525 91.5615C32.1186 90.5528 33.0356 90.1861 33.5858 90.0027C36.0616 89.1774 36.5201 88.994 39.0877 87.5268C39.3628 87.3434 39.7296 87.4351 40.0047 87.6185L49.358 93.2121C49.7248 93.3955 50.1833 93.3955 50.4584 93.2121L87.0463 72.0296C87.4131 71.8462 87.5965 71.4794 87.5965 71.0209V28.7477C87.5965 28.2892 87.4131 27.9224 87.0463 27.739L50.4584 6.64818C50.0916 6.46479 49.6331 6.46479 49.358 6.64818L12.7701 27.739C12.4033 27.9224 12.2199 28.3809 12.2199 28.7477V71.0209C12.2199 71.3877 12.4033 71.8462 12.7701 72.0296L22.7653 77.8067C28.1755 80.5576 31.5684 77.3482 31.5684 74.1387V32.4156C31.5684 31.8654 32.0269 31.3152 32.6688 31.3152H37.3454C37.8956 31.3152 38.4458 31.7737 38.4458 32.4156V74.1387C38.4458 81.3829 34.5027 85.6011 27.6253 85.6011C25.5162 85.6011 23.8656 85.6011 19.189 83.3086L9.56059 77.8067C7.17641 76.4312 5.70923 73.8636 5.70923 71.1126V28.8394C5.70923 26.0884 7.17641 23.5208 9.56059 22.1453L46.1485 0.96284C48.441 -0.320947 51.5588 -0.320947 53.8512 0.96284L90.4392 22.1453C92.8234 23.5208 94.2905 26.0884 94.2905 28.8394V71.1126C94.2905 73.8636 92.8234 76.4312 90.4392 77.8067L53.8512 98.9892C52.6592 99.5394 51.2837 99.8145 49.9999 99.8145ZM61.2789 70.7458C45.2315 70.7458 41.9304 63.4099 41.9304 57.1744C41.9304 56.6242 42.3889 56.074 43.0308 56.074H47.7991C48.3493 56.074 48.8078 56.4408 48.8078 56.991C49.5414 61.851 51.6505 64.2352 61.3706 64.2352C69.0733 64.2352 72.3745 62.4929 72.3745 58.3665C72.3745 55.9823 71.4575 54.24 59.4449 53.0479C49.4497 52.0392 43.2142 49.8385 43.2142 41.8606C43.2142 34.433 49.4497 30.0315 59.9034 30.0315C71.6409 30.0315 77.4179 34.0662 78.1515 42.8693C78.1515 43.1444 78.0598 43.4195 77.8764 43.6946C77.693 43.878 77.4179 44.0614 77.1428 44.0614H72.3745C71.916 44.0614 71.4575 43.6946 71.3658 43.2361C70.2654 38.1927 67.4227 36.5421 59.9034 36.5421C51.4671 36.5421 50.4584 39.4765 50.4584 41.6772C50.4584 44.3365 51.6505 45.1618 63.0212 46.629C74.3001 48.0962 79.6187 50.2052 79.6187 58.0914C79.527 66.1609 72.9247 70.7458 61.2789 70.7458Z" fill="#539E43"/>
</svg>
